<svg width="48" height="31" viewBox="0 0 48 31" fill="none" xmlns="http://www.w3.org/2000/svg">
<path d="M48 26.562C22.9052 29.8417 4.99377 33.7808 4.72881 17.6122C4.72881 17.6122 5.27639 11.3473 12.9603 10.9528C12.9603 10.9528 13.2194 5.38864 19.0897 4.75862C22.2457 4.41711 25.8315 7.66731 26.2201 11.0883C26.2201 11.0883 33.9865 9.65158 34.3221 17.2236C34.4398 19.8614 33.8452 24.3481 26.3556 24.1538C26.3556 24.1538 22.022 23.565 21.4332 16.8644C20.2143 29.8358 38.9677 29.0821 39.2386 17.3001C39.3564 12.207 36.0944 6.96664 28.7461 7.94994C24.7187 -2.18338 13.9966 -1.60046 10.0045 7.79685C4.29898 7.79685 -0.0640566 12.1893 0.00071177 17.9243C0.218569 36.3833 25.9081 30.8191 48 26.562Z" fill="#24339B"/>
</svg>
