<svg width="35" height="50" viewBox="0 0 35 50" fill="none" xmlns="http://www.w3.org/2000/svg">
<path d="M18.2 0.165572C17.9828 0.0566929 17.7431 0 17.5 0C17.257 0 17.0173 0.0566929 16.8 0.165572L1.17512 7.97803C0.91591 8.10792 0.697953 8.30736 0.545632 8.55406C0.39331 8.80075 0.312632 9.08496 0.312622 9.3749V39.0622C0.312565 39.3323 0.382489 39.5977 0.515575 39.8326C0.648661 40.0676 0.840366 40.2641 1.07199 40.4028L16.6969 49.7778C16.9341 49.9199 17.2047 49.9965 17.4811 49.9999C17.7575 50.0032 18.0299 49.9332 18.2704 49.7969C18.5109 49.6606 18.711 49.4629 18.8501 49.224C18.9893 48.9852 19.0626 48.7136 19.0625 48.4372V33.7779L33.825 26.3967C34.0842 26.2668 34.3021 26.0673 34.4544 25.8206C34.6067 25.5739 34.6874 25.2897 34.6874 24.9998C34.6874 24.7099 34.6067 24.4257 34.4544 24.179C34.3021 23.9323 34.0842 23.7328 33.825 23.6029L20.9938 17.1874L33.825 10.7718C34.0842 10.6419 34.3021 10.4424 34.4544 10.1957C34.6067 9.94902 34.6874 9.66482 34.6874 9.3749C34.6874 9.08498 34.6067 8.80077 34.4544 8.55408C34.3021 8.30739 34.0842 8.10793 33.825 7.97803L18.2 0.165572Z" fill="#0069CA"/>
</svg>
