<?xml version="1.0" ?><svg enable-background="new 0 0 515.91 728.5" height="512" id="Layer_1" version="1.1" viewBox="0 0 512.00003 512" width="512" xml:space="preserve" xmlns="http://www.w3.org/2000/svg" xmlns:cc="http://creativecommons.org/ns#" xmlns:dc="http://purl.org/dc/elements/1.1/" xmlns:inkscape="http://www.inkscape.org/namespaces/inkscape" xmlns:rdf="http://www.w3.org/1999/02/22-rdf-syntax-ns#" xmlns:sodipodi="http://sodipodi.sourceforge.net/DTD/sodipodi-0.dtd" xmlns:svg="http://www.w3.org/2000/svg"><defs id="defs7"/><g id="g7566" transform="translate(635.04469,-355.13478)"><path d="m -733.62329,72.267944 c 0,203.804876 -165.21649,369.021366 -369.02141,369.021366 -203.8048,0 -369.0213,-165.21649 -369.0213,-369.021366 0,-203.804874 165.2165,-369.021364 369.0213,-369.021364 203.80492,0 369.02141,165.21649 369.02141,369.021364 z" id="path5110" style="fill:#4d4d4d;fill-opacity:1;fill-rule:nonzero;stroke:none" transform="matrix(0.69372682,0,0,0.69372682,385.88949,561.00057)"/><g id="g10684" style="fill:#ffffff;fill-opacity:1" transform="matrix(0.41924465,0,0,0.41924465,-2615.0162,-944.46782)"><path d="m 4855.86,3839.198 c -6.4672,-10.4642 -56.8209,-171.0999 -56.8209,-181.2671 0,-6.3356 3.8195,-9.3268 10.3653,-8.1174 7.5056,1.3867 16.8206,21.5248 33.7627,72.9918 l 23.3973,71.0768 22.7373,-72.5576 c 18.7212,-59.7414 24.7482,-72.5575 34.1217,-72.5575 9.3674,0 15.433,12.8555 34.2352,72.5575 l 22.8508,72.5576 23.2838,-71.0768 c 17.7298,-54.1224 25.937,-71.5684 34.4066,-73.1377 9.2708,-1.7177 10.6316,0.7479 8.1733,14.8077 -4.9683,28.4145 -50.6688,169.0718 -56.9846,175.3876 -12.8267,12.8268 -22.8231,-2.867 -42.0711,-66.0493 -11.0277,-36.1987 -21.7727,-65.816 -23.8779,-65.816 -2.1052,0 -13.0263,29.9608 -24.269,66.5796 -14.1319,46.0287 -23.4285,67.1547 -30.1189,68.4432 -5.3225,1.025 -11.2588,-0.6951 -13.1916,-3.8224 z" id="path3070-9" style="fill:#ffffff;fill-opacity:1"/><path d="m 4872.142,3817.876 c 2.197,-5.7253 0.4472,-7.4907 -5.2553,-5.3024 -4.7019,1.8043 -7.0743,5.6666 -5.2719,8.5829 4.5396,7.3452 6.7092,6.6691 10.5272,-3.2805 z" id="path3068-5" style="fill:#ffffff;fill-opacity:1"/><path d="m 5140.9375,3649.125 c -5.6246,-0.034 -12.4317,0.2942 -21.0625,0.8438 -32.4957,2.0691 -40.1656,4.7831 -51.9375,18.4687 -38.7544,45.0547 -30.6439,141.6912 14,166.8437 11.0198,6.2086 27.4108,8.4997 51.1563,7.125 30.5567,-1.769 37.0415,-4.4059 51.8124,-20.9374 18.0037,-20.1495 22.8707,-48.3126 8.3438,-48.3126 -4.7024,0 -13.1409,7.7547 -18.75,17.25 -26.8794,45.5032 -88.0836,36.2043 -102.625,-15.5937 l -5.375,-19.0625 69.125,-1.6562 c 68.37,-1.6466 69.1574,-1.8313 71.1875,-16.2188 3.4196,-24.2345 -10.0616,-57.6917 -30,-74.4688 -12.8039,-10.7738 -19.0013,-14.1795 -35.875,-14.2812 z m -16.9063,23.3438 c 26.9667,0 44.9938,12.0226 53.1563,35.4374 l 6.25,17.875 -55.9687,0 c -62.9136,0 -67.1016,-3.628 -40.625,-35.0937 12.0194,-14.2843 20.0623,-18.2187 37.1874,-18.2187 z" id="path3066-8" style="fill:#ffffff;fill-opacity:1"/><path d="m 5057.3094,3756.9863 c -1.9683,-1.9682 -3.3681,1.5302 -3.1109,7.774 0.2843,6.9001 1.6877,8.3036 3.5784,3.5786 1.711,-4.2757 1.5006,-9.3844 -0.4673,-11.3526 z" id="path3064-9" style="fill:#ffffff;fill-opacity:1"/><path d="m 5057.6162,3724.1734 c -1.6227,-4.0101 -2.8514,0.705 -2.7307,10.478 0.1209,9.7731 1.4482,13.0541 2.95,7.2912 1.5017,-5.763 1.4029,-13.7591 -0.2198,-17.7692 z" id="path3062-0" style="fill:#ffffff;fill-opacity:1"/><path d="m 5164.7883,3739.1589 c -18.7317,-1.1754 -49.3836,-1.1754 -68.1153,0 -18.7316,1.1755 -3.4057,2.1372 34.0577,2.1372 37.4633,0 52.7893,-0.9617 34.0576,-2.1372 z" id="path3060" style="fill:#ffffff;fill-opacity:1"/><path d="m 5083.3461,3675.4208 c 4.0555,-4.8865 6.0409,-8.8846 4.4121,-8.8846 -1.6289,0 -6.2797,3.9981 -10.3351,8.8846 -4.0555,4.8865 -6.0409,8.8846 -4.412,8.8846 1.6288,0 6.2796,-3.9981 10.335,-8.8846 z" id="path3056" style="fill:#ffffff;fill-opacity:1"/><path d="m 5252.2745,3824.9782 c -11.2396,-10.5875 -22.1509,-26.5798 -24.2473,-35.5384 -3.2457,-13.8699 -1.9357,-16.2884 8.8231,-16.2884 7.8854,0 14.6657,5.3414 18.0374,14.2099 10.8021,28.4114 49.6912,41.9883 77.5552,27.0759 17.1151,-9.1597 29.2873,-37.3964 29.2873,-67.9396 0,-47.5755 -21.194,-74.0383 -59.2969,-74.0383 -24.2507,0 -53.2049,27.8895 -53.332,51.3712 -0.1357,25.0371 -8.4497,35.7457 -20.1886,26.0032 -7.5338,-6.2524 -9.3361,-21.2355 -9.3361,-77.6153 0,-73.8053 2.4734,-88.6051 14.8077,-88.6051 10.7936,0 14.8076,13.8699 14.8076,51.1663 0,32.3276 0.042,32.3997 13.1641,23.2079 7.7715,-5.4434 25.6417,-9.2205 43.6242,-9.2205 53.255,0 79.4422,33.2263 79.4422,100.796 0,63.0964 -26.9608,94.6651 -80.8471,94.6651 -27.8097,0 -34.4659,-2.4499 -52.3008,-19.2499 z" id="path3054" style="fill:#ffffff;fill-opacity:1"/><path d="m 5235.0013,3721.4479 c -1.9682,-1.9682 -3.3681,1.5302 -3.1109,7.774 0.2843,6.9001 1.6877,8.3036 3.5785,3.5786 1.711,-4.2757 1.5006,-9.3843 -0.4674,-11.3526 z" id="path3052" style="fill:#ffffff;fill-opacity:1"/><path d="m 5235.7673,3617.8275 c -1.2512,-13.9313 -2.2926,-4.0066 -2.3141,22.0549 -0.024,26.0615 1.0023,37.4598 2.275,25.3296 1.2727,-12.1302 1.2903,-33.4532 0.041,-47.3845 z" id="path3050" style="fill:#ffffff;fill-opacity:1"/><path d="m 5527.5,3576.75 c -67.5171,-0.2037 -130.2188,53.3381 -130.2188,136.3125 0,56.6045 28.5069,100.4698 79.9376,122.9375 9.773,4.2694 32.4264,7.822 50.3437,7.875 119.7475,0.3741 179.7476,-141.2065 95.5625,-225.5312 -28.515,-28.5624 -62.6516,-41.4943 -95.625,-41.5938 z m 0.4688,24.75 c 27.9954,0.179 65.0729,18.1764 84.0937,40.7812 42.4112,50.4031 33.2407,115.5742 -22.2187,157.875 -44.0944,33.6324 -113.0952,22.4164 -148.5938,-24.125 -13.3372,-17.4858 -17.2992,-29.6295 -19,-58.375 -1.9006,-32.1219 -0.1335,-39.4581 15.375,-63.5937 19.8111,-30.8318 57.513,-52.7722 90.3438,-52.5625 z" id="path3048" style="fill:#ffffff;fill-opacity:1"/><path d="m 5534.6096,3834.259 c -4.2757,-1.711 -9.3844,-1.5007 -11.3526,0.4673 -1.9681,1.9682 1.5302,3.3681 7.7741,3.1109 6.9,-0.2843 8.3035,-1.6877 3.5785,-3.5785 z" id="path3046" style="fill:#ffffff;fill-opacity:1"/><path d="m 5486.1145,3824.1311 c 0,-1.2803 -4.1365,-3.9151 -9.1922,-5.8552 -5.2711,-2.0227 -7.6486,-1.0297 -5.5735,2.3278 3.4784,5.6281 14.7657,8.3246 14.7657,3.5274 z" id="path3044" style="fill:#ffffff;fill-opacity:1"/><path d="m 5619.3835,3796.8436 c 5.8963,-6.5154 9.3879,-11.8461 7.759,-11.8461 -1.6288,0 -7.7858,5.3307 -13.6821,11.8461 -5.8964,6.5154 -9.388,11.8461 -7.7591,11.8461 1.6288,0 7.7858,-5.3307 13.6822,-11.8461 z" id="path3040" style="fill:#ffffff;fill-opacity:1"/><path d="m 5646.0372,3753.2629 c 0,-7.5255 -2.7358,-4.1653 -11.3705,13.9654 -6.6496,13.9623 -6.5262,14.1513 2.1592,3.3102 5.0663,-6.3236 9.2113,-14.0976 9.2113,-17.2756 z" id="path3038" style="fill:#ffffff;fill-opacity:1"/><path d="m 5407.2746,3703.5554 c -1.4899,-5.701 -2.7088,-1.0366 -2.7088,10.3653 0,11.4019 1.2189,16.0663 2.7088,10.3654 1.4897,-5.701 1.4897,-15.0298 0,-20.7307 z" id="path3034" style="fill:#ffffff;fill-opacity:1"/><path d="m 5420.7794,3657.6516 c 0,-3.2577 -2.5837,-1.925 -5.7417,2.9615 -3.1579,4.8866 -5.7416,11.55 -5.7416,14.8077 0,3.2577 2.5837,1.925 5.7416,-2.9615 3.158,-4.8866 5.7417,-11.55 5.7417,-14.8077 z" id="path3032" style="fill:#ffffff;fill-opacity:1"/><path d="m 5444.6531,3628.0363 c 11.0511,-11.4019 18.7603,-20.7307 17.1314,-20.7307 -1.6288,0 -12.0034,9.3288 -23.0545,20.7307 -11.0511,11.4019 -18.7603,20.7307 -17.1315,20.7307 1.6289,0 12.0034,-9.3288 23.0546,-20.7307 z" id="path3030" style="fill:#ffffff;fill-opacity:1"/><path d="m 5511.2875,3591.5367 c -4.0721,-1.6431 -10.7355,-1.6431 -14.8076,0 -4.0721,1.6431 -0.7404,2.9875 7.4038,2.9875 8.1442,0 11.4759,-1.3444 7.4038,-2.9875 z" id="path3028" style="fill:#ffffff;fill-opacity:1"/><path d="m 5558.672,3591.5367 c -4.0721,-1.6431 -10.7355,-1.6431 -14.8076,0 -4.0721,1.6431 -0.7404,2.9875 7.4038,2.9875 8.1442,0 11.476,-1.3444 7.4038,-2.9875 z" id="path3026" style="fill:#ffffff;fill-opacity:1"/><path d="m 5714.1525,3833.2079 c -28.3232,-17.4951 -40.0299,-34.2733 -40.7736,-58.4375 -0.8965,-29.128 13.4196,-30.1375 22.9584,-1.619 3.9717,11.8743 15.3258,26.424 26.5773,34.0576 34.7806,23.5965 102.0938,14.5233 118.4082,-15.9604 16.901,-31.5799 -0.4786,-47.8453 -76.0343,-71.161 -81.2833,-25.0831 -101.0216,-48.738 -83.2374,-99.7538 12.8817,-36.9524 83.2796,-54.0644 135.8627,-33.0248 26.5917,10.6399 41.3537,32.4736 41.3537,61.1639 0,24.0176 -16.7648,24.5658 -21.5371,0.7043 -7.2643,-36.3218 -35.0577,-51.6352 -83.7543,-46.1464 -28.3678,3.1974 -54.6313,24.0492 -54.6313,43.3742 0,16.2925 28.1071,37.1354 63.0601,46.7621 89.4987,24.6499 106.2099,38.0238 105.1792,84.1746 -0.9933,44.4743 -34.0174,66.9027 -98.453,66.8643 -25.8539,-0.018 -42.6322,-3.3718 -54.9786,-10.9981 z" id="path3024" style="fill:#ffffff;fill-opacity:1"/><path d="m 5780.6742,3834.2004 c -5.7629,-1.5017 -13.7591,-1.403 -17.7692,0.2198 -4.0101,1.6224 0.7051,2.8512 10.4781,2.7305 9.7731,-0.1209 13.0541,-1.4482 7.2911,-2.95 z" id="path3022" style="fill:#ffffff;fill-opacity:1"/><path d="m 5741.9168,3828.3359 c -4.2757,-1.711 -9.3843,-1.5006 -11.3525,0.4673 -1.9682,1.9682 1.5301,3.3681 7.774,3.1109 6.9001,-0.2843 8.3035,-1.6877 3.5785,-3.5785 z" id="path3020" style="fill:#ffffff;fill-opacity:1"/><path d="m 5857.4274,3762.786 c -1.4898,-5.701 -2.7088,-1.0365 -2.7088,10.3654 0,11.4019 1.219,16.0663 2.7088,10.3653 1.4898,-5.7009 1.4898,-15.0298 0,-20.7307 z" id="path3018" style="fill:#ffffff;fill-opacity:1"/><path d="m 5685.1542,3768.8324 c -1.9683,-1.9681 -3.3681,1.5302 -3.111,7.7741 0.2844,6.9 1.6878,8.3035 3.5785,3.5785 1.711,-4.2757 1.5006,-9.3843 -0.4673,-11.3526 z" id="path3016" style="fill:#ffffff;fill-opacity:1"/><path d="m 5783.3783,3709.8746 c -4.2758,-1.711 -9.3844,-1.5006 -11.3526,0.4679 -1.9681,1.9682 1.5302,3.3681 7.7741,3.1109 6.9,-0.2843 8.3035,-1.6877 3.5785,-3.5785 z" id="path3014" style="fill:#ffffff;fill-opacity:1"/><path d="m 5728.9601,3693.8237 c 0,-1.2803 -4.1365,-3.9151 -9.1922,-5.8552 -5.2711,-2.0227 -7.6486,-1.0297 -5.5735,2.3278 3.4784,5.6281 14.7657,8.3245 14.7657,3.5274 z" id="path3012" style="fill:#ffffff;fill-opacity:1"/><path d="m 5691.5683,3632.4095 c -1.4825,-5.663 -2.6417,0.3655 -2.5759,13.396 0.066,13.0307 1.2787,17.664 2.6954,10.2963 1.4168,-7.3678 1.363,-18.0293 -0.1196,-23.6923 z" id="path3010" style="fill:#ffffff;fill-opacity:1"/><path d="m 5705.2679,3610.2671 c 4.0554,-4.8865 6.0409,-8.8846 4.412,-8.8846 -1.6288,0 -6.2796,3.9981 -10.3351,8.8846 -4.0554,4.8865 -6.0409,8.8846 -4.412,8.8846 1.6288,0 6.2796,-3.9981 10.3351,-8.8846 z" id="path3008" style="fill:#ffffff;fill-opacity:1"/><path d="m 5841.4984,3616.9154 c 0,-1.2299 -4.6645,-5.8944 -10.3654,-10.3653 -9.3943,-7.3676 -9.6038,-7.1581 -2.2363,2.2362 7.7377,9.8664 12.6017,13.004 12.6017,8.1291 z" id="path3006" style="fill:#ffffff;fill-opacity:1"/><path d="m 5751.0589,3591.3548 c -5.763,-1.5017 -13.7591,-1.403 -17.7692,0.2198 -4.0101,1.6224 0.705,2.8511 10.4781,2.7304 9.7731,-0.1208 13.0541,-1.4482 7.2911,-2.9499 z" id="path3004" style="fill:#ffffff;fill-opacity:1"/><path d="m 5801.1475,3591.414 c -4.2758,-1.711 -9.3844,-1.5005 -11.3526,0.468 -1.9682,1.9681 1.5302,3.368 7.774,3.1109 6.9001,-0.2843 8.3036,-1.6877 3.5786,-3.5786 z" id="path3002" style="fill:#ffffff;fill-opacity:1"/></g></g></svg>